<svg width="181" height="180" viewBox="0 0 181 180" fill="none" xmlns="http://www.w3.org/2000/svg">
<g clip-path="url(#clip0_838_1801)">
<path d="M19.2755 108.35C18.4374 107.94 17.1775 107.738 15.4242 107.738H10.2V109.093H10.7943C11.1331 109.093 11.246 109.146 11.252 109.146C11.2639 109.176 11.3471 109.348 11.3471 109.919V123.363C11.3471 123.642 11.3233 123.814 10.7943 123.814H10.2V125.17H15.6797V123.814H15.0854C14.7288 123.814 14.5624 123.767 14.503 123.743C14.4733 123.654 14.4138 123.398 14.4138 122.774V109.473H14.9784C16.0304 109.473 16.803 109.61 17.2726 109.877C17.7421 110.145 18.0927 110.525 18.3542 111.048C18.6217 111.583 18.7584 112.213 18.7584 112.914C18.7584 113.788 18.5028 114.46 17.9739 114.983C17.439 115.506 16.7555 115.761 15.8818 115.761H15.2875V117.104L15.8699 117.116C17.6173 117.146 19.0377 116.778 20.0897 116.011C21.1951 115.203 21.7538 113.996 21.7538 112.427C21.7538 111.423 21.5517 110.585 21.1535 109.943C20.7553 109.301 20.1253 108.766 19.2814 108.35H19.2755Z" fill="white"/>
<path d="M33.0818 107.494C31.067 107.494 29.2959 107.993 27.8101 108.98C26.3361 109.961 25.2128 111.244 24.4818 112.802C23.7567 114.335 23.3882 115.862 23.3882 117.336C23.3882 119.547 24.1668 121.467 25.7061 123.042C27.2514 124.623 29.2484 125.425 31.6554 125.425C34.5855 125.425 36.9806 124.439 38.7636 122.501C40.5347 120.575 41.4321 118.168 41.4321 115.363C41.4321 113.134 40.6417 111.238 39.0786 109.747C37.5214 108.261 35.5007 107.506 33.0758 107.506L33.0818 107.494ZM36.0356 122.549C35.0431 123.095 34.0268 123.375 33.0164 123.375C31.1799 123.375 29.5574 122.584 28.0597 120.956C26.5501 119.309 25.8131 117.461 25.8131 115.292C25.8131 113.651 26.3956 112.314 27.5902 111.209C28.8026 110.091 30.1042 109.545 31.5722 109.545C32.6063 109.545 33.7653 109.889 35.0134 110.567C36.2615 111.244 37.2897 112.195 38.0742 113.39C38.8468 114.573 39.2391 115.904 39.2391 117.354C39.2391 118.353 38.9538 119.339 38.3832 120.29C37.8127 121.247 37.0282 122.002 36.0356 122.549Z" fill="white"/>
<path d="M56.5579 109.087H57.1522C57.384 109.087 57.5623 109.129 57.6455 109.164C57.6455 109.164 57.7346 109.301 57.7346 109.824V119.785L46.4126 107.726H42.5079V109.105L43.1319 109.075C44.1779 109.028 44.3622 109.438 44.4216 109.569C44.6534 110.098 44.7723 110.811 44.7723 111.69V122.68C44.7723 123.375 44.7128 123.648 44.6831 123.737C44.6237 123.761 44.4632 123.803 44.1245 123.803H43.5301V125.158H47.839V123.886L47.3338 123.809C46.9832 123.755 46.8227 123.714 46.7514 123.696C46.7514 123.684 46.7395 123.666 46.7336 123.642C46.7157 123.589 46.6741 123.411 46.6741 122.977V112.463L59.6306 126.257V109.967C59.6306 109.355 59.7375 109.2 59.7375 109.2C59.7375 109.2 59.8564 109.087 60.3259 109.075L60.9024 109.057V107.72H56.5698V109.075L56.5579 109.087Z" fill="white"/>
<path d="M72.1828 109.087H72.5513L69.4133 113.842L66.6199 109.236C66.5842 109.182 66.5545 109.129 66.5307 109.087H66.9705V107.732H61.9425V109.111L62.5606 109.087C62.8281 109.069 63.1312 109.319 63.4283 109.818L67.3212 116.267V122.994L67.345 123.428C67.345 123.512 67.3331 123.666 67.2677 123.725C67.238 123.755 67.1132 123.838 66.7269 123.815L66.0969 123.773V125.164H71.6301V123.809H71.0358C70.6257 123.809 70.4949 123.743 70.4831 123.743C70.4712 123.72 70.382 123.535 70.382 122.935V115.678L74.2511 109.806C74.5364 109.378 74.6969 109.248 74.7563 109.212C74.8692 109.141 75.0356 109.093 75.2436 109.081L75.7964 109.04V107.726H72.171V109.081L72.1828 109.087Z" fill="white"/>
<path d="M116.847 123.737C116.847 123.737 116.728 123.523 116.615 122.834L114.909 110.531C114.868 110.234 114.85 110.008 114.85 109.848C114.85 109.307 115.034 109.111 115.587 109.081L116.151 109.051V107.726H112.603L107.266 120.106L101.947 107.726H97.8996V109.081H98.4939C98.6841 109.081 98.8862 109.135 99.1061 109.242C99.1298 109.254 99.3379 109.372 99.6588 110.103L97.8223 123.078C97.7985 123.292 97.7569 123.488 97.7094 123.66C97.6916 123.72 97.6737 123.761 97.6618 123.785C97.6084 123.797 97.5014 123.809 97.3112 123.809H96.7169V125.164H100.384V123.809H99.7896C99.7182 123.809 99.6707 123.803 99.641 123.797C99.641 123.791 99.641 123.779 99.641 123.773C99.641 123.571 99.6529 123.393 99.6766 123.232L101.038 113.331L106.202 125.17H107.094L112.229 113.313L113.602 123.143C113.655 123.553 113.661 123.678 113.661 123.708C113.661 123.761 113.661 123.797 113.661 123.809C113.643 123.809 113.608 123.821 113.548 123.815L112.936 123.797V125.17H117.774V123.868L117.233 123.821C116.954 123.797 116.859 123.743 116.853 123.743L116.847 123.737Z" fill="white"/>
<path d="M129.732 109.087H130.481C130.73 109.087 130.82 109.146 130.814 109.129C130.831 109.164 130.938 109.432 130.938 110.478V121.247C129.726 122.59 128.389 123.25 126.861 123.25C125.893 123.25 125.043 122.911 124.276 122.21C123.533 121.532 123.159 120.338 123.159 118.65V109.729C123.159 109.325 123.218 109.182 123.212 109.176C123.242 109.158 123.39 109.087 123.812 109.087H124.407V107.732H118.909V109.087H119.504C119.813 109.087 119.967 109.123 120.038 109.141C120.062 109.218 120.104 109.42 120.104 109.848V119.577C120.104 121.336 120.645 122.739 121.703 123.755C122.755 124.765 124.181 125.277 125.94 125.277C127.812 125.277 129.488 124.67 130.944 123.464V125.164H135.212V123.809H134.617C134.249 123.809 134.142 123.749 134.136 123.749C134.071 123.708 134.059 123.672 134.059 123.66C134.059 123.642 134.011 123.482 134.011 122.816V109.592C134.011 109.349 134.041 109.224 134.059 109.176C134.124 109.152 134.29 109.105 134.653 109.087L135.212 109.057V107.738H129.744V109.093L129.732 109.087Z" fill="white"/>
<path d="M151.49 123.22C151.223 122.656 151.134 122.442 151.104 122.358L145.119 107.494H144.02L137.981 122.721C137.654 123.541 137.464 123.684 137.458 123.69C137.339 123.773 137.185 123.814 136.989 123.814H136.394V125.17H139.996V123.814H139.532C139.562 123.725 139.604 123.606 139.663 123.452L141.975 117.693H145.939L148.115 123.089L148.132 123.161C148.162 123.244 148.192 123.315 148.228 123.375L148.257 123.452H148.263C148.323 123.606 148.364 123.725 148.388 123.809H147.907V125.164H152.887V123.809H152.293C152.025 123.809 151.722 123.737 151.473 123.214L151.49 123.22ZM142.611 116.053L143.936 112.724L145.256 116.053H142.611Z" fill="white"/>
<path d="M169.13 109.146C169.13 109.146 169.261 109.087 169.606 109.087H170.2V107.732H164.863V109.087H165.457C165.754 109.087 165.873 109.135 165.879 109.123C165.909 109.194 165.986 109.455 165.986 110.204V115.423H158.254V109.664C158.254 109.331 158.307 109.206 158.301 109.2C158.325 109.188 158.468 109.111 158.878 109.087L159.437 109.051V107.732H154.046V109.063L154.617 109.087C154.914 109.099 155.056 109.141 155.11 109.164C155.14 109.259 155.193 109.533 155.193 110.234V123.292C155.193 123.511 155.152 123.678 155.086 123.743C155.027 123.803 154.878 123.826 154.682 123.815L154.046 123.773V125.17H159.437V123.815H158.842C158.51 123.815 158.403 123.761 158.403 123.761C158.337 123.714 158.319 123.672 158.307 123.642C158.307 123.624 158.254 123.446 158.254 122.709V117.057H165.986V122.638C165.986 123.505 165.897 123.737 165.903 123.737C165.903 123.737 165.784 123.809 165.451 123.809H164.857V125.164H170.194V123.809H169.6C169.297 123.809 169.19 123.761 169.19 123.761C169.13 123.719 169.112 123.684 169.1 123.654C169.1 123.636 169.047 123.452 169.047 122.656V110.192C169.047 109.366 169.095 109.17 169.124 109.135L169.13 109.146Z" fill="white"/>
<path d="M67.6362 60.6786C72.7534 55.8229 75.1188 55.5258 80.3014 53.9211C80.3014 53.9211 72.0937 51.7577 65.2708 58.7768C59.5771 64.6369 61.1402 73.6766 61.1402 73.6766C61.1402 73.6766 61.3363 66.6516 67.6362 60.6786Z" fill="white"/>
<path d="M101.18 74.3126C106.268 78.2055 102.666 80.0004 102.666 80.0004C105.246 83.6734 98.2383 84.9868 98.2383 84.9868C107.213 86.3895 105.465 80.351 105.465 80.351C109.186 77.2011 103.32 73.1775 101.18 70.9012C99.0347 68.6249 90.8568 57.9507 90.8568 57.9507C91.5581 60.227 96.7228 70.9012 101.18 74.3126Z" fill="white"/>
<path d="M79.3386 74.3956C76.6641 72.1669 78.1024 66.1582 78.1024 66.1582C72.9495 72.6542 76.5393 78.5203 83.7129 78.7699C91.2312 79.0314 93.8284 81.8842 93.8284 81.8842C92.4436 76.8205 83.6059 77.9557 79.3386 74.3956Z" fill="white"/>
<path d="M88.9549 52.7682C89.5611 53.1248 89.1807 55.0385 89.1807 55.0385C89.1807 55.0385 92.4733 49.749 90.9994 48.703C89.9474 47.9541 89.1867 49.2498 87.5285 50.4146C85.4959 51.847 82.9224 53.6062 82.9224 53.6062C86.6845 53.1367 88.206 52.3284 88.9489 52.7682H88.9549Z" fill="white"/>
<path d="M69.3598 80.5232C65.5145 75.6972 65.1579 67.9233 65.1579 67.9233C65.1579 67.9233 63.5353 72.1847 65.5323 78.5322C69.2053 90.2167 85.4781 92.1186 88.2595 107.476C90.31 118.828 79.4278 131.523 79.4278 131.523C87.4037 123.202 91.98 118.965 93.0558 108.944C94.5178 95.3161 73.9956 86.3417 69.3598 80.5232Z" fill="white"/>
</g>
<defs>
<clipPath id="clip0_838_1801">
<rect width="160" height="83.046" fill="white" transform="translate(10.2 48.4771)"/>
</clipPath>
</defs>
</svg>
