<svg width="181" height="180" viewBox="0 0 181 180" fill="none" xmlns="http://www.w3.org/2000/svg">
<g clip-path="url(#clip0_1701_4677)">
<path d="M54.6724 104.416C54.9218 105.133 55.1038 105.919 55.6261 106.528C55.8233 107.205 56.1097 107.844 56.4501 108.461C57.9599 111.529 59.7764 114.426 61.8692 117.11C64.4524 120.423 67.3675 123.452 70.6264 126.13C72.854 127.96 75.117 129.738 77.621 131.185C78.9892 132.108 80.4535 132.877 81.8605 133.729C84.1185 135.101 86.6073 135.932 88.99 136.998C89.5646 137.256 90.1493 137.782 90.9918 137.485C93.5143 136.599 95.9711 135.568 98.3504 134.358C101.749 132.631 104.968 130.622 108.036 128.344C113.801 124.062 118.667 118.96 122.524 112.904C123.751 110.976 124.834 108.959 125.744 106.866C126.45 105.247 127.138 103.611 127.626 101.899C128.292 99.5685 129.064 97.2668 129.037 94.7965C129.011 92.4695 129.037 90.1424 129.028 87.8137C129.018 84.9272 128.998 82.0407 128.983 79.1543C129 79.1003 129.03 79.0481 129.03 78.9942C129.037 69.1316 129.038 59.2708 129.052 49.4082C129.052 49.0122 128.875 48.9448 128.546 48.8151C126.378 47.9591 124.093 47.4856 121.894 46.7307C121.291 46.5537 120.697 46.3162 120.081 46.2117C117.568 45.782 115.16 44.9007 112.623 44.5654C110.914 44.3396 109.227 43.952 107.532 43.6369C107.33 43.5999 107.065 43.7734 106.932 43.5089C106.792 43.2292 107.091 43.1314 107.219 42.9764C108.339 41.6351 109.475 40.3056 110.596 38.9626C111.109 38.3476 111.573 37.6887 112.104 37.0889C113.357 35.6751 114.601 34.2546 115.693 32.7094C115.797 32.5628 115.952 32.3876 115.745 32.1938C115.592 32.0489 115.42 32.0051 115.211 32.0658C113.785 32.4803 112.355 32.8729 110.934 33.3043C109.237 33.8182 107.564 34.4181 105.849 34.8612C105.235 35.0196 104.998 35.1645 105.067 35.82C105.17 36.7822 104.789 37.6129 104.206 38.3796C102.153 41.0824 97.6629 41.2796 95.2836 39.5895C92.8639 37.8707 92.5083 35.1646 95.1168 33.3498C95.6964 32.947 95.72 32.6185 95.4774 32.0674C94.2709 29.3124 92.7628 26.7141 91.2681 24.114C90.6851 23.098 90.065 22.7306 89.2781 24.136C88.0076 26.404 86.7505 28.6805 85.4868 30.9519C85.2458 31.385 85.0773 31.84 84.9206 32.3118C84.7504 32.824 84.956 33.1543 85.3317 33.3666C88.2789 35.0399 87.3723 38.4436 85.1346 39.7024C83.7764 40.4657 82.2801 40.5769 80.7501 40.6426C78.2663 40.7505 74.9873 37.9516 75.4237 35.5403C75.4574 35.3583 75.5399 35.1376 75.176 35.0432C74.0723 34.7568 72.9854 34.4012 71.8935 34.0743C71.4318 33.9193 70.9785 33.7323 70.5084 33.6126C68.7846 33.1745 67.1333 32.4887 65.3842 32.1281C65.0876 32.0674 64.8821 32.1399 64.7186 32.2629C64.5012 32.4264 64.7641 32.6538 64.8517 32.7516C65.8729 33.894 66.6918 35.205 67.8123 36.2615C69.8058 38.6795 71.7992 41.0976 73.8397 43.5712C72.3485 43.8509 71.0139 44.1357 69.6676 44.3733C67.0827 44.83 64.5012 45.3557 61.9653 46.0263C59.0754 46.7897 56.2429 47.767 53.3682 48.5994C52.5964 48.8235 52.4582 49.238 52.4599 49.971C52.4802 64.4068 52.5509 78.8442 52.4178 93.28C52.3807 97.2128 53.412 100.81 54.6657 104.411L54.6724 104.416ZM56.2867 105.151C56.2867 105.151 56.3001 105.168 56.3086 105.176C56.3001 105.168 56.2951 105.16 56.2867 105.151ZM56.0086 104.681C56.0423 104.777 56.0861 104.868 56.1418 104.956C56.0878 104.868 56.0423 104.777 56.0086 104.681ZM72.4075 125.663C71.5346 125.06 71.5228 124.517 72.0654 123.703C72.7866 122.622 73.1691 121.333 74.0352 120.332C74.1734 120.172 74.3031 119.907 74.5559 119.998C74.7901 120.082 74.8036 120.343 74.7884 120.581C74.4396 122.301 74.2172 124.062 73.1859 125.569C72.9467 125.918 72.8405 125.963 72.4058 125.663H72.4075ZM84.3039 132.488C83.709 132.629 83.1614 132.786 82.5228 132.358C81.2977 131.537 79.9682 130.873 78.6809 130.145C78.1636 129.783 77.6446 129.419 77.0497 129.003C78.1804 128.325 79.2673 127.695 80.3305 127.03C81.2303 126.465 82.0375 125.778 82.7941 125.031C82.9626 124.864 83.1462 124.551 83.3973 124.687C83.5557 124.773 83.6298 125.099 83.6568 125.326C83.6955 125.648 83.7208 125.988 83.5439 126.293C83.4613 127.24 82.8918 127.936 82.2734 128.563C81.7763 129.069 81.8235 129.385 82.3273 129.837C83.0755 130.508 83.7478 131.261 84.4724 131.96C84.8161 132.292 84.5246 132.439 84.3022 132.491L84.3039 132.488ZM84.2567 124.278C84.2365 124.238 84.2196 124.199 84.2061 124.157C84.1943 124.116 84.1859 124.074 84.1825 124.03C84.1859 124.072 84.1943 124.115 84.2061 124.157C84.2179 124.197 84.2365 124.238 84.2567 124.278ZM84.3679 127.003C84.1168 127.053 84.009 126.937 83.9315 126.785C84.009 126.939 84.1168 127.053 84.3679 127.003ZM97.3815 133.123C95.3358 134.105 93.2818 135.069 91.1249 135.789C90.7407 135.917 90.4054 135.945 90.0128 135.777C88.9158 135.305 87.7632 134.966 86.7135 134.382C86.7017 134.301 86.6916 134.221 86.6798 134.141C86.8668 134.154 87.0538 134.166 87.2409 134.179C87.6756 134.324 88.107 134.21 88.54 134.167C89.3337 134.425 89.9993 133.824 90.7946 133.83C91.3052 133.836 91.9202 133.734 92.478 133.571C93.5901 133.247 93.6255 133.239 92.9919 132.231C95.2499 132.039 97.4725 131.744 99.7742 131.856C98.9772 132.28 98.1936 132.734 97.3815 133.123ZM87.8879 134.038C87.9958 134.034 88.1053 134.043 88.2131 134.065C88.1053 134.044 87.9958 134.036 87.8879 134.038ZM101.613 130.728C101.196 130.821 100.797 130.828 100.383 130.808C98.2981 131.045 96.2171 131.31 94.1293 131.502C93.4385 131.566 92.7375 131.677 92.0719 131.109C91.3777 130.516 90.4745 130.89 89.6909 131.057C89.273 131.146 88.7692 131.34 88.4929 131.133C87.9975 130.759 87.615 130.211 87.2611 129.684C87.0842 129.421 87.433 129.254 87.6116 129.097C88.995 127.87 90.3414 126.61 91.6287 125.281C92.6313 124.244 93.0762 123.033 93.1149 121.629C93.1217 121.413 92.9784 121.044 93.4115 121.093C95.0359 121.279 96.6063 120.726 98.2172 120.748C98.529 120.751 98.7194 120.805 98.8525 121.127C100.032 123.966 101.38 126.738 102.216 129.716C102.388 130.329 102.255 130.587 101.613 130.728ZM105.232 127.884C105.208 128.479 104.068 129.566 103.476 129.524C103.229 129.507 103.25 129.368 103.203 129.203C102.592 127.048 101.619 125.026 100.785 122.957C100.094 121.243 99.4844 119.466 98.4279 117.914C98.1178 117.457 98.1414 117.202 98.6402 116.798C100.012 115.686 100.256 114.072 100.207 112.361C99.9495 112.794 99.6226 113.202 99.4473 113.667C98.9671 114.941 98.2088 115.974 97.0562 116.704C96.7496 116.897 96.731 117.101 96.9214 117.396C97.2551 117.914 97.5719 118.444 97.8752 118.98C98.0858 119.354 98.3032 119.61 97.5668 119.799C96.18 120.153 94.8 120.074 93.4132 120.033C93.0105 120.022 92.6077 120.108 92.1814 119.971C91.7383 119.831 91.9236 120.274 91.9421 120.46C92.0129 121.164 92.146 121.828 91.9725 122.573C91.6793 123.837 90.8553 124.662 89.9875 125.483C88.685 126.715 87.3555 127.916 86.0293 129.124C85.8794 129.261 85.8086 129.353 85.9973 129.51C86.6697 130.069 87.1465 130.801 87.7093 131.458C88.0649 131.874 88.4861 131.931 88.9967 131.815C89.5578 131.689 90.129 131.573 90.7003 131.544C91.7281 131.492 92.2404 132.243 92.8066 132.974C91.8579 133.293 91.531 132.043 90.6784 132.243C90.6784 132.282 90.6649 132.329 90.68 132.361C91.2108 133.389 91.1603 133.492 89.9622 133.536C89.2714 133.561 88.6125 133.822 87.9048 133.731C87.497 133.679 87.2274 133.566 86.9662 133.2C86.2147 132.149 85.2795 131.247 84.2904 130.423C83.0974 129.429 83.062 129.39 83.8438 128.138C83.9652 128.076 84.0258 127.982 84.0005 127.842C84.1471 127.572 84.351 127.326 84.3763 127.003C84.619 126.881 84.533 126.672 84.5077 126.48C84.6712 126.288 84.7689 126.079 84.6645 125.823C84.4201 125.72 84.2971 125.555 84.3022 125.375C84.2971 125.555 84.4201 125.722 84.6645 125.823C84.6459 125.53 84.8228 125.21 84.5499 124.95C84.5347 124.841 84.5212 124.731 84.5061 124.622C84.4589 124.564 84.4117 124.509 84.3696 124.452C84.4117 124.509 84.4589 124.566 84.5061 124.622C84.6358 124.253 84.3881 123.951 84.3291 123.614C84.3173 123.216 84.5195 122.93 84.8144 122.692C85.6738 121.996 86.5584 121.365 87.6554 121.056C88.353 120.859 89.0237 120.552 89.7954 120.065H87.3538C88.1744 119.287 89.1248 118.989 90.0027 118.234C89.0338 118.18 88.353 118.503 87.6908 118.83C85.8979 119.715 84.4555 121.034 83.3653 122.689C81.6634 125.27 79.0549 126.666 76.4937 128.142C76.1584 128.334 75.8348 128.425 75.5551 128.032C75.4995 127.953 75.3327 127.951 75.2805 127.87C74.8659 127.232 73.592 127.08 73.7639 126.388C73.9206 125.756 74.5576 125.119 74.8979 124.418C75.7927 122.574 75.6865 120.653 75.4153 118.716C75.358 118.311 75.1524 118.074 74.6907 118.409C73.3679 119.368 72.5372 120.687 71.8564 122.131C71.5953 122.686 71.3071 123.23 70.9853 123.751C70.9145 123.865 70.96 124.315 70.5792 124.052C70.318 123.872 70.0855 123.676 70.2809 123.296C71.2751 121.351 72.3367 119.452 73.6763 117.715C74.3486 116.844 75.1372 116.052 75.3327 114.847C75.4068 114.388 76.0067 113.987 76.4162 113.613C78.8982 111.349 81.8589 109.873 84.9324 108.637C87.4465 107.626 90.0498 106.836 92.5825 105.869C94.3366 105.2 95.9795 104.305 97.2382 102.843C97.3713 102.689 97.4556 102.332 97.7033 102.468C97.8684 102.558 97.9358 102.881 97.9864 103.114C98.2627 104.369 98.374 105.662 98.8272 106.878C98.8795 107.016 98.7565 107.246 99.0058 107.278C99.208 107.303 99.2839 107.124 99.3681 106.981C99.8163 106.214 100.26 105.444 100.716 104.683C100.853 104.455 100.969 104.191 101.279 104.052C101.436 104.416 101.245 104.829 101.554 105.095C101.503 105.432 101.692 105.687 101.845 105.955C101.867 106.081 101.896 106.204 102.036 106.26L102.042 106.272L102.174 106.494C102.516 107.215 103.063 107.785 103.621 108.329C104.533 109.219 105.077 110.221 104.919 111.542C104.89 111.78 104.713 112.146 105.059 112.284C105.353 112.402 105.564 112.104 105.781 111.945C106.334 111.544 106.725 110.998 107.099 110.434C107.242 110.216 107.284 109.894 107.684 109.805C108.194 111.842 106.905 113.57 106.713 115.533C108.051 115.302 109.069 114.314 110.503 114.174C109.981 115.133 109.273 115.725 108.444 116.132C107.345 116.673 106.218 117.172 105.069 117.595C104.074 117.961 104.302 118.759 104.417 119.391C104.652 120.699 104.757 122.025 104.836 123.334C104.929 124.856 105.289 126.351 105.23 127.884H105.232ZM113.939 96.0182C114.796 97.5145 115.361 99.1321 115.959 100.735C116.133 102.741 114.758 105.982 113.452 106.445C114.783 103.82 115.169 101.154 114.294 98.3705C114.225 97.5836 113.743 96.8674 113.939 96.0198V96.0182ZM119.848 99.7387C119.848 99.7387 119.858 99.7387 119.863 99.7387C119.858 99.7387 119.853 99.7387 119.848 99.7387ZM116.685 105.667C116.652 105.453 116.66 105.144 116.938 105.165C117.181 105.183 117.211 105.471 117.176 105.712C117.164 105.793 117.189 105.877 117.198 105.962C117.508 106.834 117.258 107.741 117.346 108.626C117.304 108.821 117.26 109.03 117.489 109.133C117.708 109.231 117.738 108.973 117.865 108.899C118.289 108.648 118.284 108.162 118.478 107.754C119.376 109.559 117.191 112.567 114.276 113.484C114.965 112.594 115.477 111.748 115.737 110.725C116.08 109.37 116.107 107.967 116.488 106.62C116.571 106.329 116.741 106.014 116.685 105.667ZM117.513 106.474C117.516 106.425 117.518 106.374 117.513 106.326C117.516 106.374 117.514 106.423 117.513 106.474ZM113.809 100.718C113.77 100.724 113.733 100.735 113.699 100.748C113.733 100.735 113.77 100.726 113.809 100.718ZM113.587 100.81C113.608 100.792 113.635 100.777 113.664 100.763C113.635 100.777 113.61 100.792 113.587 100.81ZM102.091 106.122C102.105 106.061 102.095 106.014 102.056 105.985C102.095 106.014 102.103 106.061 102.091 106.122ZM107.483 99.6174C107.5 99.5803 107.524 99.5483 107.554 99.5197C107.524 99.5483 107.5 99.582 107.483 99.6174ZM107.894 102.468C107.763 101.437 107.748 100.419 107.782 99.3899C108.306 98.1447 109.087 97.1134 110.221 96.3535C110.929 95.88 111.46 95.2296 111.91 94.5117C112.036 94.3095 112.085 94.0349 112.481 93.9944C112.242 95.1571 111.693 96.1041 110.971 96.9651C110.323 97.7386 109.716 98.5339 109.487 99.5483C109.322 99.7118 109.293 99.914 109.258 100.141C109.069 101.393 108.919 102.645 108.909 103.913C108.803 103.921 108.759 103.973 108.791 104.079C108.654 105.072 108.257 105.904 107.286 106.422C107.942 105.16 108.065 103.811 107.894 102.468ZM112.838 85.6383C112.306 85.8573 111.875 85.7377 111.398 85.5894C111.017 85.4715 110.526 85.4833 110.159 85.6265C109.854 85.7461 110.353 86.2719 109.76 86.5331C110.215 86.5735 110.462 86.5937 110.708 86.6156C110.151 87.566 109.945 87.5795 109.283 86.71C108.533 85.7259 108.606 85.4277 109.729 84.8581C110.922 84.2532 111.888 84.4807 112.838 85.6366V85.6383ZM110.382 82.0492C111.5 82.0829 112.525 82.3255 113.052 83.4848C112.163 83.0063 111.271 82.5277 110.382 82.0492ZM112.383 87.3099C110.917 88.7826 109.18 90.0093 108.365 92.124C109.039 92.0735 109.455 91.5444 110.227 91.7179C108.036 93.5479 106.123 95.4722 105.571 98.3991C105.114 97.7487 105.551 95.0611 106.484 93.0087C107.692 90.3514 109.6 88.3596 112.385 87.3099H112.383ZM102.795 85.9365C104.042 84.0021 106.797 83.1714 108.43 84.2835C106.369 84.4032 104.592 84.8312 102.795 85.9365ZM104.829 90.1525C103.623 91.8729 101.437 92.8924 101.176 95.4099C101.924 95.0088 102.433 94.3752 103.525 94.3112C101.591 96.2861 100.315 98.3806 100.332 101.1C99.3867 100.222 99.0749 96.8506 99.8837 94.8757C100.814 92.6076 102.583 91.1012 104.828 90.1525H104.829ZM111.869 123.223C110.259 124.687 108.575 126.066 106.826 127.362C106.673 127.475 106.494 127.55 106.369 127.454C106.08 127.23 106.304 126.89 106.262 126.605C105.891 124.566 105.913 122.485 105.593 120.438C105.512 119.919 105.537 119.375 105.581 118.847C105.626 118.308 106.428 118.003 106.974 118.363C108.769 119.55 110.412 120.925 111.925 122.456C112.22 122.755 112.146 122.974 111.869 123.223ZM115.145 119.964C114.552 120.557 113.957 121.152 113.396 121.777C113.076 122.133 112.867 122.114 112.535 121.774C111.232 120.439 109.793 119.26 108.122 118.011C110.098 117.583 111.984 117.364 113.829 116.417C113.651 117.538 113.1 118.281 112.786 119.176C113.403 119.386 113.895 118.968 114.417 118.844C114.813 118.749 115.09 118.68 115.356 119.039C115.656 119.444 115.42 119.693 115.145 119.968V119.964ZM116.66 118.246C116.556 118.37 116.394 118.653 116.178 118.363C116.021 118.153 115.868 117.978 116.225 117.698C117.054 117.047 117.811 116.306 118.596 115.602C118.645 115.639 118.694 115.676 118.743 115.711C118.05 116.557 117.364 117.41 116.658 118.244L116.66 118.246ZM121.535 107.655C121.494 108.553 121.191 109.36 120.488 109.965C120.802 107.532 120.888 105.143 120.214 102.741C121.481 104.132 121.614 105.871 121.537 107.655H121.535ZM94.8404 43.8071C94.8286 43.8038 94.8185 43.8021 94.8067 43.7987C94.8185 43.8004 94.8286 43.8038 94.8404 43.8071ZM54.6892 49.7385C57.7847 48.8083 60.8649 47.8125 64.0126 47.0778C66.7558 46.4375 69.5075 45.7635 72.2929 45.3944C74.5222 45.0979 76.7616 44.8047 79.0078 44.589C81.2371 44.375 83.4647 44.2924 85.6906 44.1307C88.4524 43.9318 91.2058 43.9099 93.9659 43.9857C94.3737 44.316 94.8404 44.1104 95.2819 44.129C96.7563 44.1964 98.2391 44.1829 99.7018 44.348C103.001 44.7221 106.321 44.8957 109.586 45.627C111.654 46.0904 113.767 46.365 115.85 46.8082C118.412 47.3525 120.913 48.0905 123.427 48.7932C123.584 48.837 123.749 48.8454 123.911 48.8707C124.826 49.1925 125.722 49.5835 126.659 49.816C127.379 49.9946 127.523 50.3586 127.523 51.0309C127.503 61.7612 127.505 72.4916 127.503 83.2236C127.503 83.6702 127.523 84.1184 127.534 84.5649C127.529 88.1288 127.513 91.691 127.52 95.2548C127.523 96.9298 127.038 98.5154 126.597 100.094C125.662 103.444 124.283 106.624 122.645 109.691C122.585 109.803 122.549 109.969 122.268 109.942C122.504 108.809 122.75 107.689 122.746 106.524C122.741 104.725 122.185 103.136 121.166 101.683C120.78 101.132 120.37 100.598 119.973 100.056C120.052 99.9409 120.133 99.8263 120.212 99.7101C120.635 99.6039 121.001 99.4202 121.211 99.0108C121.243 98.9636 121.277 98.9164 121.309 98.8692C121.42 98.7058 121.382 98.5272 121.361 98.3519C121.098 98.3553 120.834 98.3587 120.571 98.362C119.964 99.149 119.316 99.4202 118.792 99.0462C118.256 98.6637 117.764 98.2188 117.251 97.8009C116.685 97.1859 116.045 96.6382 115.595 95.9154C115.297 95.4351 115.061 95.024 115.315 94.3887C115.595 93.6894 115.668 92.9059 115.821 92.1577C115.848 92.0263 115.88 91.8426 115.812 91.7584C115.678 91.5865 115.519 91.7617 115.376 91.814C115.041 91.937 114.781 92.2319 114.348 92.2571C114.264 91.5056 114.827 90.9293 114.899 90.2216C114.921 90.0042 115.143 89.738 114.977 89.5442C114.776 89.3117 114.461 89.524 114.212 89.5055C113.78 89.4734 113.487 90.262 113.13 89.7869C112.818 89.3723 113.408 88.9966 113.566 88.5955C113.865 87.844 114.2 87.079 114.751 86.4791C115.202 85.9888 115.175 85.7108 114.577 85.4513C114.387 85.3687 114.22 85.2356 113.827 84.9912C115.691 84.8278 117.302 84.7688 118.876 85.3316C119.011 85.3805 119.215 85.4631 119.11 85.6922C118.99 85.9534 118.852 85.7343 118.712 85.7091C118.308 85.6349 117.995 85.7293 118.232 86.2146C118.515 86.7925 118.172 86.7538 117.804 86.7134C116.933 86.619 116.2 86.8347 115.674 87.6738C116.358 87.876 117.044 87.7058 117.715 87.7446C118.129 87.7682 118.519 87.7766 118.652 88.2569C118.771 88.6916 118.569 89.0404 118.237 89.2797C117.833 89.5695 117.422 89.8627 116.921 89.9891C116.834 90.011 116.773 90.1323 116.699 90.2064C116.791 90.2957 116.839 90.412 117.027 90.3817C117.754 90.2705 118.438 90.0733 119.026 89.6083C119.415 89.3016 119.366 88.8854 119.38 88.4624C119.418 87.1397 119.776 86.9088 121.088 87.1919C121.786 87.3419 122.534 87.2745 123.176 87.6806C123.092 87.8356 122.984 87.8912 122.832 87.9215C122.263 88.0361 122.232 88.3158 122.613 88.7051C122.846 88.9427 123.082 89.1617 123.422 89.2443C123.926 89.3673 123.879 89.7616 123.914 90.1677C123.956 90.6547 123.569 90.6243 123.336 90.7305C122.622 91.0574 121.821 90.9158 121.068 91.0844C120.554 91.1989 120.2 90.3429 120.499 89.7768C120.633 89.5206 120.782 89.2729 120.847 88.9696C120.049 89.1904 119.546 89.7228 119.546 90.5131C119.546 91.2276 119.23 91.6522 118.726 92.0583C117.728 92.8604 117.039 93.8697 116.753 95.1402C116.711 95.329 116.572 95.5244 116.776 95.6542C116.952 95.7654 117.09 95.5581 117.194 95.457C117.676 94.9886 117.718 95.3172 117.86 95.7384C118.013 96.1917 118.03 96.736 118.492 97.0477C119.095 97.6122 119.851 97.2651 120.529 97.3864C120.542 97.7116 120.556 98.0385 120.569 98.3637C120.832 98.3604 121.097 98.357 121.36 98.3536C121.36 98.2491 121.361 98.1447 121.363 98.0385C121.336 98.0385 121.307 98.0368 121.28 98.0385C121.307 98.0385 121.336 98.0385 121.363 98.0385C121.363 97.9745 121.361 97.9105 121.36 97.8464C121.341 97.5566 121.55 97.2331 121.238 96.9854C120.79 97.1235 120.788 96.6214 120.527 96.49C120.271 96.6298 119.846 96.8438 119.774 96.5371C119.676 96.1311 120.15 95.9625 120.519 95.8496C120.522 96.0637 120.526 96.276 120.529 96.49C120.79 96.6214 120.792 97.1235 121.24 96.9854C121.233 96.5439 121.225 96.1041 121.218 95.6626C121.088 95.3256 121.66 94.9296 121.245 94.6971C120.879 94.4932 120.483 94.8841 120.205 95.0931C119.696 95.4756 119.568 95.3711 119.346 94.8235C118.916 93.7585 119.546 92.6009 120.246 91.9201C120.532 91.6404 121.006 91.7651 121.37 91.8258C121.744 91.8881 121.666 92.3043 121.703 92.5908C121.766 93.066 121.516 93.8091 122.034 93.922C122.546 94.0332 122.755 93.2749 123.068 92.8688C123.525 92.2774 123.813 91.5545 124.458 91.1113C124.654 90.9765 124.767 90.7878 124.758 90.5418C124.735 89.8206 124.716 89.1432 125.353 88.5736C125.673 88.2872 125.373 87.8659 125.026 87.6856C123.806 87.0504 122.569 86.4134 121.152 86.4067C120.515 86.4033 120.094 86.3292 120.001 85.5658C119.948 85.1227 119.627 84.784 119.095 84.7115C118.694 84.6576 118.305 84.5009 117.912 84.388C117.594 84.297 117.361 84.1015 117.358 83.7595C117.337 81.9649 116.149 81.2606 114.648 80.9252C114.036 80.7887 113.406 80.5815 112.751 80.7112C112.744 80.7534 112.712 80.8208 112.732 80.846C113.054 81.2269 113.639 81.8031 113.415 82.0626C113.133 82.3878 112.577 81.8234 112.137 81.6515C110.604 81.0533 109.037 81.1561 107.463 81.4409C107.257 81.4779 107.055 81.5403 106.848 81.5925C106.878 81.6565 106.892 81.7088 106.924 81.7475C107.202 82.0744 107.96 82.0677 107.844 82.5513C107.756 82.9153 107.06 82.7889 106.661 82.8445C103.584 83.2708 101.752 85.1682 100.472 87.8373C101.131 88.1541 101.707 87.6603 102.544 87.8339C101.808 88.4843 101.183 89.0404 100.551 89.5897C99.0513 90.8923 98.2038 92.5554 97.6123 94.4359C97.1978 95.7553 97.5112 97.1353 97.0023 98.4278C96.4951 99.7151 95.7217 100.698 94.3956 101.163C93.7081 101.404 93.1537 100.868 92.3348 100.726C92.9161 102.01 93.6407 102.942 95.0494 103.324C93.8985 104.297 92.5589 104.821 91.2648 105.406C89.1281 106.371 86.8095 106.831 84.651 107.751C81.3129 109.173 78.1619 110.895 75.4035 113.276C74.7935 113.804 74.2846 114.431 74.2088 115.307C74.1902 115.512 74.0537 115.735 73.9122 115.9C72.089 118.042 70.6163 120.402 69.5024 123.063C67.3052 121.112 65.3876 119.012 63.6065 116.783C62.0158 114.791 60.6307 112.66 59.2742 110.499C58.2497 108.868 57.6128 107.055 56.6085 105.426C56.5428 104.794 56.2479 104.255 55.9244 103.727C55.9126 103.623 55.9025 103.518 55.8907 103.415C55.1459 101.449 54.6724 99.4051 54.1416 97.378C53.9495 96.6416 54.0388 95.8884 53.9428 95.147L53.9866 95.0846L53.9428 95.0223C54.0152 94.2741 54.0152 93.526 53.9445 92.7761C54.0489 91.9033 54.0472 91.0287 53.9461 90.1559C53.9613 89.8762 53.9883 89.5981 53.9883 89.3184C53.9916 81.7155 53.9916 74.1126 53.9916 66.5097C53.9916 66.23 53.9664 65.9519 53.9512 65.6722C53.9714 65.4515 54.0085 65.2308 54.0085 65.01C54.0102 60.3071 54.0085 55.6041 54.0051 50.9012C54.0051 50.6804 53.963 50.4597 53.9394 50.2406C54.1096 49.9575 54.4028 49.8278 54.6859 49.7418L54.6892 49.7385ZM115.415 81.9615C116.429 82.2227 116.674 82.708 116.244 83.8083C116.038 83.0518 115.831 82.4805 115.415 81.9615ZM123.023 91.6387C122.795 91.9656 122.873 92.4846 122.361 92.4273C122.147 92.4037 122.224 92.0853 122.249 91.9168C122.327 91.4112 122.711 91.7331 123.021 91.6404L123.023 91.6387ZM119.944 97.0427C120.023 97.0662 120.098 97.0932 120.167 97.1252C120.098 97.0949 120.022 97.0662 119.944 97.0427Z" fill="white"/>
<path d="M66.3699 141.622L66.343 141.614C66.0026 141.486 65.6622 141.513 65.3185 141.601C65.2191 141.601 65.118 141.601 65.0185 141.602C63.9452 141.461 63.9266 141.483 64.1002 142.794C64.0261 143.139 64.0244 143.484 64.1036 143.832C63.9907 145.618 63.994 147.404 64.1086 149.19C63.9721 149.417 64.0918 149.638 64.1272 149.862C63.3082 149.328 63.0083 148.4 62.4994 147.641C61.2137 145.724 60.0157 143.747 58.7839 141.794C58.767 141.69 58.7232 141.614 58.6019 141.617C57.815 141.397 56.9775 141.703 56.1973 141.38C56.0069 141.301 55.9109 141.486 55.8216 141.626C55.675 142.243 55.739 142.863 55.7845 143.483C55.7929 143.537 55.8014 143.591 55.8098 143.645C55.8098 144.155 55.8098 144.664 55.8098 145.175C55.7272 147.357 55.7239 149.54 55.8115 151.723C55.8115 151.896 55.8115 152.068 55.8098 152.242C55.8435 152.29 55.8755 152.339 55.9092 152.388C56.6928 152.363 57.4999 152.665 58.2565 152.225V144.308C58.4048 144.438 58.5042 144.492 58.5581 144.576C59.8438 146.602 61.1362 148.622 62.405 150.659C63.5863 152.557 63.5745 152.543 65.7819 152.55C66.3683 152.552 66.5368 152.397 66.5317 151.802C66.5031 148.609 66.5233 145.417 66.5132 142.224C66.5132 142.024 66.6379 141.769 66.3716 141.622H66.3699Z" fill="white"/>
<path d="M45.7973 146.74C44.9227 145.072 44.9362 145.066 46.3045 143.786C47.0038 143.132 47.6963 142.473 48.3922 141.818C47.7081 141.642 47.1285 141.685 46.5555 141.631C45.8815 141.567 45.4165 141.804 44.9531 142.295C43.7904 143.525 42.567 144.699 41.3521 145.88C41.2443 145.985 41.1297 146.211 40.8567 146.079C40.8567 145.195 40.8567 144.298 40.8567 143.403C40.8567 141.489 40.8567 141.513 38.9055 141.518C38.2702 141.518 38.1169 141.757 38.2635 142.315C38.2769 145.564 38.2921 148.814 38.3056 152.063C38.2668 152.216 38.1455 152.395 38.4185 152.46C38.5297 152.467 38.6426 152.474 38.7538 152.479C39.4211 152.531 40.09 152.653 40.7472 152.418L40.7725 152.378C40.9578 152.063 40.8955 151.704 40.8416 151.395C40.8062 151.193 40.7843 150.996 40.7725 150.806C40.7725 150.637 40.7725 150.47 40.7725 150.302C40.8449 149.043 41.4903 148.039 42.6277 147.24C42.6732 147.208 42.717 147.169 42.7507 147.127C43.049 146.763 43.236 146.79 43.4214 147.247C43.8662 148.347 44.4021 149.412 44.8031 150.526C45.5041 152.479 46.9364 152.639 48.5287 152.583C48.8691 152.572 48.8961 152.437 48.7208 152.166C47.6003 150.435 46.7493 148.56 45.7956 146.738L45.7973 146.74ZM38.4218 152.351C38.4218 152.316 38.4218 152.28 38.4134 152.246C38.4202 152.28 38.4218 152.316 38.4218 152.351Z" fill="white"/>
<path d="M71.5582 142.325C73.6881 142.357 75.818 142.325 77.9496 142.333C78.4652 142.335 78.8022 142.256 78.4669 141.644L78.4483 141.631C75.5736 141.433 72.6956 141.497 69.8209 141.609C68.5251 141.659 67.9556 142.311 67.9337 143.614C67.8966 145.857 67.8865 148.099 67.9303 150.342C67.9606 151.909 68.6532 152.524 70.2304 152.533C71.4925 152.539 72.7529 152.513 74.015 152.533C74.716 152.543 75.3917 152.536 75.9646 151.832C75.9241 152.42 76.1162 152.582 76.5577 152.539C77.0026 152.497 77.4558 152.502 77.9024 152.541C78.3944 152.583 78.5191 152.39 78.5124 151.919C78.4871 150.153 78.4871 148.386 78.5124 146.62C78.5191 146.158 78.4129 145.983 77.9142 145.991C76.1213 146.02 74.3284 145.995 72.5338 146.015C72.3299 146.017 71.9491 145.771 71.9306 146.29C71.9121 146.763 72.212 146.75 72.5372 146.748C73.4067 146.741 74.2762 146.777 75.144 146.731C75.7708 146.697 76.0539 146.836 76.0067 147.547C75.941 148.551 75.9949 149.564 75.9915 150.573C75.9899 151.498 75.7438 151.751 74.7834 151.764C73.6898 151.78 72.5962 151.741 71.5043 151.776C70.8741 151.798 70.6938 151.567 70.7022 150.944C70.7342 148.366 70.7342 145.786 70.7039 143.206C70.6971 142.554 70.8859 142.313 71.5616 142.325H71.5582ZM70.2371 141.737C70.2135 141.728 70.1916 141.718 70.168 141.708C70.1916 141.716 70.2135 141.727 70.2371 141.737Z" fill="white"/>
<path d="M101.586 146C100.752 146.063 99.9141 146.068 99.0817 146.15C98.0942 146.248 97.1456 145.933 96.1716 145.938C95.902 145.938 95.5144 145.8 95.501 146.319C95.4892 146.816 95.8312 146.74 96.1312 146.742C97.0563 146.745 97.983 146.775 98.9064 146.733C99.4473 146.71 99.5754 146.919 99.5602 147.416C99.5282 148.481 99.5501 149.547 99.5451 150.612C99.5417 151.512 99.3277 151.744 98.406 151.761C97.2854 151.782 96.1615 151.741 95.0426 151.778C94.4495 151.798 94.254 151.581 94.2675 151.001C94.2978 149.684 94.2776 148.366 94.2776 147.048C94.2776 145.758 94.3096 144.467 94.2658 143.179C94.2439 142.529 94.4428 142.31 95.1083 142.322C97.2382 142.36 99.3698 142.337 101.5 142.337C101.811 142.337 102.096 142.44 102.096 141.879C102.096 141.218 101.66 141.562 101.485 141.56C99.0733 141.535 96.662 141.521 94.2523 141.56C92.0264 141.594 91.6085 141.997 91.5495 144.238C91.5057 145.919 91.558 147.603 91.5377 149.284C91.5293 149.908 91.7282 150.494 91.6405 151.151C91.5394 151.916 92.4915 152.515 93.612 152.53C95.0982 152.55 96.5844 152.521 98.069 152.536C98.7632 152.543 99.4069 151.98 100.177 152.503C100.502 152.723 101.107 152.509 101.581 152.54C102 152.567 102.101 152.392 102.1 152.004C102.088 150.181 102.089 148.359 102.108 146.536C102.111 146.14 101.997 145.975 101.584 146.007L101.586 146Z" fill="white"/>
<path d="M39.0015 138.643C51.1658 138.655 63.3285 138.653 75.4928 138.653C76.8526 138.653 76.8526 138.648 76.7212 137.248C76.5055 137.046 76.2409 137.155 76.0067 137.155C63.6621 137.147 51.3175 137.145 38.9729 137.152C38.737 137.152 38.4707 137.042 38.2567 137.248C38.1472 137.258 38.0747 137.298 38.1084 137.426C38.1084 137.76 38.1101 138.094 38.1118 138.427C38.3258 138.833 38.7066 138.643 39.0032 138.643H39.0015Z" fill="white"/>
<path d="M142.406 137.16C130.134 137.145 117.86 137.149 105.588 137.159C105.237 137.159 104.873 137.081 104.531 137.238C104.137 138.481 104.245 138.647 105.443 138.647C117.575 138.65 129.707 138.653 141.84 138.657C142.669 138.657 143.088 138.242 143.098 137.411C143.049 136.849 142.621 137.16 142.404 137.16H142.406Z" fill="white"/>
<path d="M128.789 155.281C128.651 155.268 128.511 155.241 128.373 155.241C103.129 155.241 77.8838 155.244 52.6402 155.229C51.9932 155.229 51.855 155.419 51.8516 156.031C51.8483 156.644 52.0538 156.833 52.6234 156.759C52.8441 156.73 53.0716 156.759 53.2957 156.759C78.4281 156.759 103.559 156.761 128.691 156.759C128.961 156.759 129.252 156.858 129.503 156.668L129.52 156.648C129.613 156.195 129.733 155.74 129.461 155.301C129.237 155.296 129.011 155.29 128.787 155.285L128.789 155.281Z" fill="white"/>
<path d="M137.408 142.315C138.943 142.335 140.48 142.311 142.015 142.333C142.642 142.342 142.748 142.109 142.451 141.6C140.842 141.439 139.229 141.562 137.619 141.545C136.875 141.536 136.119 141.415 135.384 141.646C135.189 141.641 134.985 141.595 134.832 141.772C133.987 141.961 133.854 142.65 133.846 143.326C133.814 145.85 133.826 148.374 133.834 150.9C133.834 151.257 133.873 151.626 134.163 151.901C134.306 152.273 134.631 152.364 134.973 152.432C137.335 152.649 139.701 152.548 142.065 152.482C142.29 152.509 142.594 152.688 142.557 152.221C142.596 152.086 142.66 151.948 142.488 151.855L142.445 151.832C140.54 151.67 138.633 151.766 136.727 151.783C136.655 151.706 136.581 151.628 136.508 151.55C136.496 150.888 136.483 150.226 136.471 149.564C136.471 149.325 136.471 149.087 136.471 148.848C136.486 148.597 136.542 148.34 136.506 148.098C136.407 147.405 136.668 147.186 137.368 147.217C138.68 147.274 139.996 147.238 141.311 147.238C141.582 147.238 141.89 147.299 141.907 146.863C141.926 146.393 141.592 146.489 141.332 146.489C139.738 146.489 138.144 146.497 136.55 146.502C136.525 146.443 136.5 146.384 136.474 146.325C136.469 145.375 136.672 144.416 136.372 143.476L136.368 143.469C136.358 143.247 136.35 143.026 136.34 142.803C136.581 142.391 136.951 142.308 137.405 142.313L137.408 142.315Z" fill="white"/>
<path d="M131.989 141.609C130.964 141.481 129.94 141.508 128.914 141.599C128.6 141.612 128.641 141.91 128.526 142.082C128.531 142.079 128.538 142.077 128.543 142.074C128.513 142.148 128.481 142.222 128.45 142.296C127.448 144.183 126.575 146.13 125.687 148.073C125.512 148.457 125.276 149.124 125.075 149.121C124.607 149.114 124.704 148.477 124.529 148.123C123.491 146.022 122.5 143.897 121.494 141.779C121.505 141.673 121.444 141.644 121.353 141.646C120.217 141.462 119.081 141.494 117.946 141.631C117.929 141.688 117.912 141.745 117.895 141.803C118.016 142.06 118.016 142.335 118.016 142.613C118.006 145.304 118.003 147.995 117.996 150.686C117.993 152.582 117.993 152.561 119.875 152.548C120.382 152.545 120.554 152.422 120.546 151.893C120.515 150.1 120.536 148.305 120.536 146.511C120.536 145.587 120.536 144.664 120.536 143.742C120.883 144.165 121.014 144.635 121.243 145.051C122.477 147.281 123.422 149.648 124.543 151.93C124.637 152.123 124.568 152.489 124.945 152.477C125.319 152.465 125.51 152.246 125.66 151.903C126.182 150.705 126.747 149.525 127.291 148.337C128.007 146.777 128.72 145.215 129.433 143.654C129.495 143.668 129.559 143.68 129.621 143.693C129.621 143.904 129.621 144.113 129.621 144.323C129.621 146.874 129.554 149.427 129.652 151.975C129.697 153.143 130.735 152.334 131.29 152.509C131.616 152.612 132.203 152.787 132.191 151.973C132.14 148.583 132.135 145.193 132.114 141.803C132.142 141.691 132.124 141.609 131.985 141.607L131.989 141.609Z" fill="white"/>
<path d="M109.113 141.572C108.877 141.489 108.69 141.514 108.617 141.796C108.579 142.01 108.609 142.279 108.489 142.429C107.498 143.683 107.141 145.245 106.464 146.645C105.599 148.433 104.964 150.337 103.931 152.049C103.672 152.481 103.781 152.54 104.194 152.583C105.333 152.701 106.546 152.054 107.082 151.038C107.433 150.374 107.628 149.631 108.115 149.04C108.998 149.036 109.883 149.033 110.766 149.03C110.944 149.03 111.125 149.03 111.303 149.03C111.566 149.03 111.829 149.03 112.092 149.03C112.535 149.316 112.575 149.832 112.749 150.258C113.587 152.305 113.844 152.641 115.888 152.6C116.505 152.589 116.648 152.484 116.291 151.915C115.332 150.393 114.788 148.669 113.989 147.067C113.125 145.333 112.471 143.499 111.551 141.789C111.507 141.737 111.462 141.683 111.418 141.631C111.327 141.634 111.234 141.639 111.143 141.644C111.234 141.639 111.327 141.636 111.418 141.631C110.653 141.462 109.883 141.533 109.113 141.572ZM111.782 148.437C111.443 148.437 111.106 148.437 110.767 148.437C110.821 148.679 111.143 148.681 111.261 148.868C111.143 148.681 110.823 148.679 110.767 148.437H108.204C108.853 146.88 109.45 145.444 110.083 143.924C110.59 144.495 110.73 145.201 110.943 145.82C111.239 146.682 111.907 147.441 111.78 148.437H111.782ZM110.262 141.678C110.07 141.68 109.878 141.675 109.686 141.659C109.878 141.676 110.07 141.68 110.262 141.678Z" fill="white"/>
<path d="M53.2957 152.45C53.3985 152.514 53.4945 152.533 53.567 152.408C53.5923 152.401 53.6411 152.393 53.6395 152.388C53.6378 152.342 53.626 152.297 53.6176 152.251C53.6782 149.319 53.69 146.387 53.6108 143.455C53.6951 143.307 53.6951 143.159 53.6108 143.011C53.6108 142.879 53.6108 142.748 53.6108 142.616C53.6277 142.599 53.663 142.578 53.6597 142.564C53.6496 142.52 53.6277 142.48 53.6091 142.438L53.6041 142.402C53.6782 142.328 53.6765 142.251 53.6108 142.173C53.6142 142.043 53.6192 141.912 53.6226 141.782C53.6378 141.76 53.6698 141.725 53.6664 141.72C53.6361 141.686 53.599 141.658 53.5636 141.627C53.4137 141.425 53.2233 141.521 53.0396 141.555C52.8795 141.481 52.7194 141.477 52.5593 141.556C52.2628 141.556 51.9662 141.556 51.6696 141.556C51.4927 141.214 51.3225 141.201 51.1591 141.565L51.1355 141.578C51.095 141.647 51.0209 141.715 51.0209 141.784C51.0276 145.267 51.0411 148.748 51.0546 152.231C51.0495 152.251 51.0344 152.275 51.0394 152.292C51.0496 152.329 51.0681 152.364 51.0833 152.401C51.8162 152.636 52.5543 152.553 53.294 152.447L53.2957 152.45Z" fill="white"/>
<path d="M55.9075 152.388C55.8755 152.339 55.8418 152.29 55.8081 152.241C55.7373 152.359 55.7946 152.391 55.9075 152.388Z" fill="white"/>
<path d="M91.4804 81.4261C93.2885 84.0733 95.7503 85.819 98.9805 86.3565C99.2502 86.402 99.4844 86.466 99.5973 86.1408C99.8028 85.5426 100.256 85.1062 100.632 84.631C101.656 83.3403 102.895 82.3225 104.521 81.8625C104.924 81.7479 105.146 81.4716 105.254 81.0655C105.406 80.4926 105.859 80.1033 106.375 80.0494C107.694 79.9095 109.008 79.5018 110.338 79.7141C110.99 79.8186 111.384 79.5793 111.89 79.2692C112.476 78.9103 112.259 78.4318 112.24 78.0139C112.217 77.4865 111.728 77.6988 111.44 77.6988C108.075 77.6836 104.71 77.6903 101.345 77.6802C101.057 77.6802 100.716 77.8134 100.502 77.4747C100.517 75.6936 100.534 73.9108 100.549 72.1297C106.883 72.1179 113.217 72.1112 119.552 72.0842C120.087 72.0825 120.042 72.3791 120.042 72.7262C120.039 75.6144 120.035 78.5009 120.042 81.389C120.044 82.3933 119.754 83.497 120.955 84.1188C121.242 84.2671 121.137 84.7759 121.545 84.8754C122.237 85.0456 122.944 85.1804 123.616 85.4112C124.332 85.6555 124.42 85.3826 124.418 84.7372C124.398 76.3828 124.401 68.0283 124.401 59.6739C124.401 57.4867 124.394 55.3012 124.408 53.114C124.41 52.6843 124.404 52.44 123.821 52.3709C122.056 52.1586 120.305 51.8182 118.546 51.552C117.652 51.4172 116.751 51.3312 115.855 51.2217C115.753 51.0364 115.573 51.0802 115.411 51.0633C113.688 50.8746 111.989 50.5207 110.26 50.3354C107.953 50.0877 105.677 49.5721 103.38 49.2165C102.051 49.0109 100.723 48.7902 99.3833 48.6318C98.6756 48.5476 98.406 48.7127 98.0571 49.2098C96.1008 52.0069 94.1175 54.7856 92.1443 57.5709C95.0291 56.265 98.0942 55.9179 101.195 55.7393C101.85 55.5186 102.519 55.4983 103.202 55.5691C103.365 55.586 103.542 55.9718 103.705 55.5691C104.371 55.6197 105.035 55.6871 105.7 55.7157C107.222 55.7814 108.636 56.3409 110.107 56.6391C111.382 57.175 112.685 57.6619 113.863 58.3949C116.584 60.0867 118.463 62.5014 119.759 65.403C120.025 65.9978 120.013 66.3601 119.247 66.559C117.267 67.0729 115.297 67.634 113.346 68.2474C112.602 68.4799 112.34 68.3165 112.075 67.5767C110.944 64.4088 108.659 62.3683 105.433 61.5948C103.003 61.0118 100.511 61.1736 98.0673 61.824C94.2473 62.8418 91.6102 65.1873 90.3498 68.913C89.4196 71.6613 89.3505 74.5292 89.9538 77.3702C90.2554 78.789 90.6649 80.228 91.4855 81.4278L91.4804 81.4261Z" fill="white"/>
<path d="M57.4106 93.959C57.4089 95.3711 57.6077 96.7292 58.0745 98.0537C58.0812 98.1649 58.0677 98.2828 58.0964 98.3873C58.944 101.469 60.2549 104.368 61.7074 107.197C62.0192 107.805 62.3225 108.516 62.9139 109V105.768C62.9139 105.547 62.9139 105.326 62.9139 105.104C62.9931 103.195 62.9897 101.284 62.9156 99.3747C62.9156 98.758 62.9156 98.143 62.9173 97.5262C62.9914 96.7966 62.9914 96.0653 62.9173 95.3357C62.9274 95.0846 62.9459 94.8335 62.9459 94.5825C62.9493 81.0533 62.9527 67.5241 62.9527 53.9932C62.9527 53.4624 62.9325 52.9299 62.9223 52.3991C62.9223 52.2391 62.9223 52.079 62.9223 51.9206C62.9173 51.2398 62.4202 51.6122 62.2062 51.651C60.9037 51.8818 59.6045 52.1177 58.2868 52.2475C57.7173 52.3031 57.3971 52.4581 57.3971 53.1877C57.4257 66.7776 57.4257 80.3691 57.4089 93.959H57.4106Z" fill="white"/>
<path d="M71.7975 71.4301C77.193 63.6115 82.5885 55.7946 88.0564 47.8699C86.5062 47.7991 85.229 48.2456 83.9146 48.3501C81.441 48.5473 79.0364 49.1522 76.5881 49.4892C75.2586 49.6729 73.9358 49.9256 72.5996 50.0183C71.8817 50.0688 71.6323 50.2475 71.6357 50.9889C71.6593 57.6364 71.6492 64.2855 71.6526 70.933C71.6526 71.0864 71.5599 71.27 71.7975 71.4268V71.4301Z" fill="white"/>
<path d="M71.7233 116.155C71.9222 115.873 72.0165 115.74 72.1126 115.605C72.5237 115.359 72.7546 114.963 72.8523 114.529C73.127 113.288 73.9408 112.432 74.8575 111.662C76.4077 110.361 78.1518 109.342 79.8992 108.339C82.6154 106.781 85.5289 105.679 88.5215 104.777C88.9916 104.636 89.4887 104.573 89.1315 103.866C88.075 101.775 87.069 99.6564 85.9822 97.5805C84.7386 95.2012 83.5355 92.8034 82.3458 90.3954C81.0349 87.7432 79.6666 85.1196 78.3236 82.4825C77.926 81.6821 77.5232 80.8851 77.1323 80.0813C76.893 79.5893 76.6925 79.3517 76.2612 79.9667C74.935 81.8556 73.592 83.7362 72.2019 85.5762C71.784 86.1289 71.6391 86.6648 71.6509 87.3354C71.6863 89.435 71.6627 91.5345 71.6694 93.6341C71.6812 96.8795 71.6997 100.127 71.7149 103.372C71.602 104.518 71.5953 105.662 71.725 106.808V116.153L71.7233 116.155Z" fill="white"/>
<path d="M95.6223 96.8492C95.6155 94.9586 96.3367 93.3325 97.0091 91.6643C95.3712 91.388 93.8597 90.8639 92.1882 90.3247C93.4149 92.6551 94.5186 94.7513 95.6223 96.8492Z" fill="white"/>
</g>
<defs>
<clipPath id="clip0_1701_4677">
<rect width="105" height="133.565" fill="white" transform="translate(38.1 23.2178)"/>
</clipPath>
</defs>
</svg>
