<svg width="180" height="180" viewBox="0 0 180 180" fill="none" xmlns="http://www.w3.org/2000/svg">
<g clip-path="url(#clip0_986_7388)">
<path d="M160 112.154V118.616H20V112.154H160Z" fill="white"/>
<path d="M129.617 83.9625C130.007 84.1612 130.36 84.3303 130.702 84.5216C133.107 85.8861 134.35 88.0597 134.792 90.6931C135.027 92.1055 135.067 93.5546 135.115 94.9889C135.163 96.3976 135.159 97.8099 135.078 99.2149C134.917 102.043 134.063 104.588 131.849 106.519C130.36 107.818 128.598 108.535 126.671 108.796C125.339 108.98 123.99 109.053 122.643 109.068C119.304 109.105 115.964 109.072 112.625 109.09C112.231 109.09 112.172 108.947 112.172 108.612C112.18 105.684 112.172 102.76 112.172 99.8328C112.172 87.4051 112.172 74.9811 112.172 62.5534C112.172 62.1267 112.391 61.9122 112.827 61.9097C116.52 61.9097 120.212 61.8987 123.905 61.9281C125.659 61.9428 127.377 62.2334 129.036 62.8366C131.198 63.6237 132.658 65.1242 133.508 67.2317C134.045 68.5631 134.336 69.957 134.365 71.3914C134.409 73.5173 134.519 75.6504 134.078 77.7579C133.537 80.3508 132.324 82.4767 129.874 83.7308C129.786 83.775 129.723 83.8632 129.613 83.9589L129.617 83.9625ZM119.661 87.7876V102.268C121.338 102.268 122.996 102.378 124.633 102.238C126.479 102.08 127.414 101.021 127.645 99.1707C127.701 98.7147 127.726 98.2549 127.73 97.7989C127.741 96.2836 127.752 94.7683 127.726 93.253C127.712 92.5358 127.656 91.8149 127.539 91.1087C127.267 89.5236 126.421 88.4312 124.78 88.0487C123.103 87.6589 121.404 87.8391 119.661 87.7913V87.7876ZM119.661 81.171C121.01 81.1158 122.345 81.1416 123.659 80.9871C125.247 80.8032 126.428 79.9904 126.748 78.3096C127.164 76.1102 127.13 73.8814 126.851 71.682C126.616 69.832 125.531 68.8647 123.666 68.7029C122.36 68.5888 121.036 68.6587 119.719 68.6514C119.697 68.6514 119.675 68.6881 119.661 68.7029V81.171Z" fill="white"/>
<path d="M72.1271 109.057C72.1271 108.788 72.1271 108.535 72.1271 108.281C72.1345 93.5102 72.1382 78.7397 72.1419 63.9728C72.1419 63.4358 72.1382 62.8989 72.1087 62.3656C72.094 62.0419 72.1786 61.9022 72.5391 61.9058C76.3862 61.9205 80.2296 61.8948 84.0767 61.9389C85.8605 61.9573 87.6149 62.281 89.2736 62.9614C91.2781 63.7816 92.6315 65.2675 93.4333 67.2646C94.0034 68.6842 94.2866 70.1701 94.294 71.7001C94.3013 73.7377 94.305 75.7753 94.2535 77.8128C94.2204 79.181 93.9298 80.5198 93.4039 81.7887C92.6279 83.6718 91.3516 85.1062 89.4281 86.0036C89.5862 86.1102 89.7002 86.2022 89.8253 86.2684C92.238 87.5115 93.4958 89.6006 93.9666 92.1714C94.2314 93.6095 94.3528 95.088 94.3933 96.5482C94.4595 98.8432 94.3602 101.146 94.4227 103.441C94.4631 104.934 94.6618 106.427 94.8236 107.913C94.864 108.284 95.0332 108.637 95.1583 109.049H87.6847C87.1919 107.49 87.0374 105.861 87.0154 104.228C86.9786 101.377 87.008 98.5269 86.9786 95.6802C86.9712 94.8894 86.9161 94.0803 86.7542 93.3079C86.3055 91.1747 85.2941 90.2037 83.1352 89.961C81.9766 89.8286 80.7886 89.9389 79.5529 89.9389V109.06H72.1271V109.057ZM79.5786 83.1127C80.8585 83.1127 82.0869 83.2047 83.3007 83.0943C85.5442 82.8884 86.6991 81.6857 86.8131 79.4348C86.9124 77.4193 86.8903 75.3964 86.905 73.3773C86.9087 72.8587 86.883 72.3364 86.8131 71.8215C86.563 69.9752 85.4927 68.8792 83.639 68.71C82.4694 68.6033 81.2852 68.6585 80.1045 68.6401C79.928 68.6401 79.7515 68.6401 79.5749 68.6401V83.1164L79.5786 83.1127Z" fill="white"/>
<path d="M54.0612 91.3441C54.0502 91.5648 54.0318 91.7156 54.0318 91.8664C54.0318 97.4127 54.0392 102.959 54.0465 108.505C54.0465 109.079 54.0355 109.075 53.447 109.075C51.3469 109.075 49.2505 109.075 47.1504 109.079C46.9886 109.079 46.8231 109.079 46.6098 109.079C46.6098 108.66 46.6098 108.299 46.6098 107.935C46.6098 92.738 46.6098 77.5372 46.6024 62.34C46.6024 62.0237 46.6833 61.906 47.007 61.906C50.9129 61.9207 54.8226 61.8619 58.7248 61.9575C61.1559 62.0164 63.4326 62.6784 65.3193 64.3592C67.1068 65.9481 67.9748 67.9967 68.3205 70.2917C68.4971 71.4539 68.6148 72.6382 68.6221 73.8115C68.6332 76.4301 68.6405 79.0525 68.4934 81.6638C68.3389 84.3891 67.5004 86.8901 65.4039 88.8137C64.0284 90.0752 62.3807 90.7299 60.5675 91.0793C58.7101 91.4397 56.8417 91.2963 54.977 91.3404C54.6865 91.3478 54.3996 91.3404 54.0539 91.3404L54.0612 91.3441ZM54.0024 76.6802C54.0024 76.6802 54.0097 76.6802 54.0134 76.6802C54.0134 79.207 54.0171 81.7374 54.0061 84.2641C54.0061 84.5399 54.0796 84.6466 54.3665 84.6429C55.5765 84.6282 56.7903 84.6687 57.9966 84.6172C59.7767 84.5399 60.8323 83.6278 61.0603 81.8624C61.2001 80.7774 61.1523 79.663 61.1596 78.5633C61.1707 76.3419 61.2332 74.1167 61.1412 71.8989C61.0566 69.8393 60.0084 68.8389 58.2651 68.7212C56.9521 68.6329 55.6317 68.666 54.3187 68.6329C53.984 68.6256 54.0024 68.8242 54.0024 69.0522C54.0024 71.5937 54.0024 74.1388 54.0024 76.6802Z" fill="white"/>
<path d="M20.2391 94.8529C22.6665 94.8529 25.0387 94.8602 27.4147 94.8455C27.7678 94.8455 27.8045 95.0037 27.8045 95.2942C27.8156 96.5962 27.8156 97.8982 27.8781 99.1965C27.9002 99.693 28.0215 100.201 28.187 100.671C28.7755 102.356 30.0959 102.963 31.8686 102.79C33.6009 102.621 34.5977 101.51 34.8661 99.6011C35.2303 97.0412 34.5535 94.7756 33.0456 92.6866C31.9606 91.1823 30.5924 89.9539 29.3309 88.6225C27.834 87.0447 26.2966 85.5036 24.8107 83.9147C22.4495 81.388 20.9084 78.442 20.4855 74.9774C20.1618 72.3183 20.3935 69.6996 21.5263 67.2464C23.1814 63.6788 26.1053 61.8766 29.9561 61.4684C31.9606 61.2551 33.9172 61.4353 35.8481 62.0679C38.2351 62.8476 39.8056 64.4953 40.92 66.6469C41.7328 68.2211 42.0638 69.935 42.1999 71.6857C42.2661 72.5536 42.2735 73.429 42.3139 74.3007C42.3286 74.6059 42.244 74.7273 41.902 74.7273C39.8644 74.7126 37.8269 74.7089 35.7893 74.7347C35.348 74.742 35.245 74.5949 35.256 74.1866C35.2781 73.3922 35.2707 72.5941 35.2339 71.796C35.1273 69.3833 33.6414 68.0372 31.2287 68.1438C29.2647 68.2321 28.0988 69.409 27.8671 71.4687C27.5618 74.2161 28.2569 76.695 30.0186 78.7914C31.1662 80.1559 32.5012 81.3659 33.7775 82.6201C35.6128 84.4223 37.5694 86.1141 39.0994 88.1995C42.4647 92.7859 43.2665 97.8026 41.4754 103.198C40.3793 106.493 37.9997 108.406 34.6786 109.189C32.1997 109.774 29.7318 109.719 27.297 108.917C23.4646 107.656 21.3204 104.941 20.5259 101.065C20.1324 99.145 20.1471 97.1994 20.1765 95.2538C20.1765 95.1361 20.2133 95.0147 20.2391 94.8602V94.8529Z" fill="white"/>
<path d="M147.061 68.6365V81.7409C147.267 81.7482 147.444 81.763 147.624 81.763C150.658 81.7666 153.692 81.7777 156.727 81.763C157.146 81.763 157.271 81.8696 157.264 82.2999C157.238 84.1683 157.238 86.0367 157.264 87.9088C157.267 88.3538 157.179 88.5119 156.69 88.5083C153.67 88.4825 150.654 88.4936 147.635 88.4972H147.083V102.319C147.363 102.319 147.631 102.319 147.903 102.319C151.736 102.319 155.564 102.319 159.397 102.304C159.805 102.304 159.923 102.426 159.919 102.826C159.904 104.743 159.908 106.659 159.926 108.571C159.926 108.939 159.838 109.086 159.437 109.086C153.034 109.075 146.627 109.079 140.224 109.079C139.628 109.079 139.628 109.083 139.628 108.494C139.628 93.4146 139.628 78.3388 139.628 63.2593C139.628 62.921 139.595 62.5826 139.635 62.2516C139.65 62.1302 139.819 61.9463 139.941 61.9316C140.272 61.8875 140.614 61.9132 140.948 61.9132C147.076 61.9132 153.207 61.9206 159.334 61.9095C159.801 61.9095 159.93 62.0383 159.923 62.5054C159.897 64.3885 159.901 66.2752 159.923 68.1583C159.926 68.5482 159.809 68.6475 159.434 68.6475C155.509 68.6365 151.589 68.6401 147.664 68.6401C147.484 68.6401 147.3 68.6401 147.068 68.6401L147.061 68.6365Z" fill="white"/>
<path d="M106.747 61.9945V109.079C106.409 109.079 106.093 109.079 105.776 109.079C103.783 109.079 101.793 109.065 99.7999 109.087C99.3916 109.09 99.3144 108.943 99.318 108.583C99.3438 106.163 99.3622 103.743 99.3622 101.323C99.3622 89.5568 99.3585 77.7875 99.3511 66.0218C99.3511 64.7971 99.3328 63.5723 99.3144 62.3439C99.3107 62.0828 99.3254 61.9062 99.6711 61.9062C101.845 61.9246 104.022 61.9283 106.196 61.943C106.376 61.943 106.556 61.9761 106.74 61.9908L106.747 61.9945Z" fill="white"/>
</g>
<defs>
<clipPath id="clip0_986_7388">
<rect width="140" height="57.2321" fill="white" transform="translate(20 61.3838)"/>
</clipPath>
</defs>
</svg>
